<svg xmlns="http://www.w3.org/2000/svg" viewBox="0 0 1078.76 584.43"><defs><style>.cls-1{fill:#439a86;}</style></defs><g id="Layer_1" data-name="Layer 1"><path class="cls-1" d="M756.61,721C656.64,656.25,602.36,597.22,590,574.36c139,0,146.63-138,146.63-162.81s-1.91-163.77-161.87-163.77-159,140-159,140V685.29H508.1V560.08s12.34,10.86,56.14,14.67c3.81,5.71,56.22,81.73,178.37,162,168,110.44,336.77,94.68,336.77,94.68v-19C949.89,812.4,844.25,777.75,756.61,721ZM507.15,539.66V482.49l43.8,70S519.53,550.67,507.15,539.66Zm66.65,12.81c-37.1-44.74-66.65-116.16-66.65-116.16V288.72c22.85-21.89,63.79-20,63.79-20s149.49-12.38,149.49,142.82S577.61,553.42,573.8,552.47Z" transform="translate(-0.62 -247.78)"/></g><g id="Layer_2" data-name="Layer 2"><polygon class="cls-1" points="0 437.03 18.09 437.03 18.09 131.39 324.2 437.5 372.28 437.5 372.28 0 354.19 0 354.19 311.35 44.27 1.43 0 1.43 0 437.03"/></g></svg>